<svg width="783" height="98" viewBox="0 0 783 98" fill="none" xmlns="http://www.w3.org/2000/svg">
<g clip-path="url(#clip0_9_125)">
<path d="M75.4839 82.0364C101.903 61.0909 117 48.8727 117 29.6727C117 12.2182 103.79 0 84.9194 0C73.5968 0 63.4065 5.23636 58.5 12.9164C53.5935 5.23636 43.4032 0 32.0806 0C13.2097 0 7.15256e-07 12.2182 7.15256e-07 29.6727C7.15256e-07 48.8727 15.0968 61.0909 41.5161 82.0364C47.1774 86.5745 52.8387 91.1127 58.5 96C64.1613 91.1127 69.8226 86.5745 75.4839 82.0364Z" fill="url(#paint0_radial_9_125)"/>
<path d="M706.745 96.08L685.625 26.832L700.729 26.96L714.233 71.312L727.929 26.96H740.921L754.553 71.312L768.121 26.96H783.225L762.105 96.08H750.073L734.393 48.528L718.777 96.08H706.745Z" fill="white"/>
<path d="M654.069 98C647.072 98 640.928 96.4853 635.637 93.456C630.346 90.4267 626.208 86.224 623.221 80.848C620.277 75.472 618.805 69.2853 618.805 62.288C618.805 54.736 620.256 48.1867 623.157 42.64C626.058 37.0507 630.09 32.72 635.253 29.648C640.416 26.576 646.389 25.04 653.173 25.04C660.341 25.04 666.421 26.7253 671.413 30.096C676.448 33.424 680.181 38.1387 682.613 44.24C685.045 50.3413 685.962 57.5307 685.365 65.808H670.069V60.176C670.026 52.6667 668.704 47.184 666.101 43.728C663.498 40.272 659.402 38.544 653.813 38.544C647.498 38.544 642.805 40.5067 639.733 44.432C636.661 48.3147 635.125 54.0107 635.125 61.52C635.125 68.5173 636.661 73.936 639.733 77.776C642.805 81.616 647.285 83.536 653.173 83.536C656.97 83.536 660.234 82.704 662.965 81.04C665.738 79.3333 667.872 76.88 669.365 73.68L684.597 78.288C681.952 84.5173 677.856 89.36 672.309 92.816C666.805 96.272 660.725 98 654.069 98ZM630.261 65.808V54.16H677.813V65.808H630.261Z" fill="white"/>
<path d="M593.17 16.464V2.32001H608.594V16.464H593.17ZM593.17 96.08V26.96H608.594V96.08H593.17Z" fill="white"/>
<path d="M538.246 96.08L509.19 3.92001H525.062L549.382 81.104L574.022 3.92001H589.894L560.838 96.08H538.246Z" fill="white"/>
<path d="M459.766 96.08V25.872C459.766 24.1227 459.83 22.2027 459.958 20.112C460.086 17.9787 460.449 15.8667 461.046 13.776C461.643 11.6853 462.731 9.78666 464.31 8.07999C466.273 5.90399 468.385 4.41066 470.646 3.6C472.95 2.74667 475.211 2.27733 477.43 2.19199C479.649 2.064 481.59 2 483.254 2H491.894V14.544H483.894C480.95 14.544 478.753 15.2907 477.302 16.784C475.894 18.2347 475.19 20.1547 475.19 22.544V96.08H459.766ZM448.63 39.056V26.96H491.894V39.056H448.63Z" fill="white"/>
<path d="M410.273 98C403.361 98 397.324 96.4427 392.161 93.328C386.998 90.2133 382.988 85.9253 380.129 80.464C377.313 74.96 375.905 68.6453 375.905 61.52C375.905 54.2667 377.356 47.9093 380.257 42.448C383.158 36.9867 387.19 32.72 392.353 29.648C397.516 26.576 403.489 25.04 410.273 25.04C417.228 25.04 423.286 26.5973 428.449 29.712C433.612 32.8267 437.622 37.136 440.481 42.64C443.34 48.1013 444.769 54.3947 444.769 61.52C444.769 68.688 443.318 75.024 440.417 80.528C437.558 85.9893 433.548 90.2773 428.385 93.392C423.222 96.464 417.185 98 410.273 98ZM410.273 83.536C416.417 83.536 420.982 81.488 423.969 77.392C426.956 73.296 428.449 68.0053 428.449 61.52C428.449 54.8213 426.934 49.488 423.905 45.52C420.876 41.5093 416.332 39.504 410.273 39.504C406.134 39.504 402.721 40.4427 400.033 42.32C397.388 44.1547 395.425 46.736 394.145 50.064C392.865 53.3493 392.225 57.168 392.225 61.52C392.225 68.2187 393.74 73.5733 396.769 77.584C399.841 81.552 404.342 83.536 410.273 83.536Z" fill="white"/>
<path d="M318.784 98C311.787 98 305.643 96.4853 300.352 93.456C295.061 90.4267 290.923 86.224 287.936 80.848C284.992 75.472 283.52 69.2853 283.52 62.288C283.52 54.736 284.971 48.1867 287.872 42.64C290.773 37.0507 294.805 32.72 299.968 29.648C305.131 26.576 311.104 25.04 317.888 25.04C325.056 25.04 331.136 26.7253 336.128 30.096C341.163 33.424 344.896 38.1387 347.328 44.24C349.76 50.3413 350.677 57.5307 350.08 65.808H334.784V60.176C334.741 52.6667 333.419 47.184 330.816 43.728C328.213 40.272 324.117 38.544 318.528 38.544C312.213 38.544 307.52 40.5067 304.448 44.432C301.376 48.3147 299.84 54.0107 299.84 61.52C299.84 68.5173 301.376 73.936 304.448 77.776C307.52 81.616 312 83.536 317.888 83.536C321.685 83.536 324.949 82.704 327.68 81.04C330.453 79.3333 332.587 76.88 334.08 73.68L349.312 78.288C346.667 84.5173 342.571 89.36 337.024 92.816C331.52 96.272 325.44 98 318.784 98ZM294.976 65.808V54.16H342.528V65.808H294.976Z" fill="white"/>
<path d="M257.885 96.08V2H273.309V96.08H257.885Z" fill="white"/>
<path d="M219.163 98C210.63 98 203.696 96.08 198.363 92.24C193.03 88.4 189.787 83.0027 188.635 76.048L204.379 73.616C205.19 77.0293 206.982 79.7173 209.755 81.68C212.528 83.6427 216.027 84.624 220.251 84.624C223.963 84.624 226.822 83.8987 228.827 82.448C230.875 80.9547 231.899 78.928 231.899 76.368C231.899 74.7893 231.515 73.5307 230.747 72.592C230.022 71.6107 228.4 70.672 225.883 69.776C223.366 68.88 219.504 67.7493 214.299 66.384C208.496 64.848 203.888 63.2053 200.475 61.456C197.062 59.664 194.608 57.552 193.115 55.12C191.622 52.688 190.875 49.744 190.875 46.288C190.875 41.9787 192.006 38.224 194.267 35.024C196.528 31.824 199.686 29.3707 203.739 27.664C207.792 25.9147 212.571 25.04 218.075 25.04C223.451 25.04 228.208 25.872 232.347 27.536C236.528 29.2 239.899 31.568 242.459 34.64C245.019 37.712 246.598 41.3173 247.195 45.456L231.451 48.272C231.067 45.328 229.723 43.0027 227.419 41.296C225.158 39.5893 222.128 38.6293 218.331 38.416C214.704 38.2027 211.782 38.7573 209.563 40.08C207.344 41.36 206.235 43.1733 206.235 45.52C206.235 46.8427 206.683 47.9733 207.579 48.912C208.475 49.8507 210.267 50.7893 212.955 51.728C215.686 52.6667 219.739 53.8187 225.115 55.184C230.619 56.592 235.014 58.2133 238.299 60.048C241.627 61.84 244.016 63.9947 245.467 66.512C246.96 69.0293 247.707 72.08 247.707 75.664C247.707 82.6187 245.168 88.08 240.091 92.048C235.056 96.016 228.08 98 219.163 98Z" fill="white"/>
<path d="M163 96.08V3.92001H178.424V96.08H163Z" fill="white"/>
</g>
<defs>
<radialGradient id="paint0_radial_9_125" cx="0" cy="0" r="1" gradientUnits="userSpaceOnUse" gradientTransform="translate(105.677 40.1455) rotate(180) scale(128.323 118.691)">
<stop stop-color="#6DC761"/>
<stop offset="0.28" stop-color="#4ADE80"/>
<stop offset="0.48" stop-color="#2BBBC0"/>
<stop offset="0.65" stop-color="#5B8DEF"/>
<stop offset="0.82" stop-color="#D247AA"/>
<stop offset="0.92" stop-color="#FD7436"/>
<stop offset="1" stop-color="#FAC124"/>
</radialGradient>
<clipPath id="clip0_9_125">
<rect width="783" height="98" fill="white"/>
</clipPath>
</defs>
</svg>
