<svg width="783" height="98" viewBox="0 0 783 98" fill="none" xmlns="http://www.w3.org/2000/svg">
<g clip-path="url(#clip0_9_139)">
<path d="M76.129 82.0364C102.774 61.0909 118 48.8727 118 29.6727C118 12.2182 104.677 0 85.6452 0C74.2258 0 63.9484 5.23636 59 12.9164C54.0516 5.23636 43.7742 0 32.3548 0C13.3226 0 1.66893e-06 12.2182 1.66893e-06 29.6727C1.66893e-06 48.8727 15.2258 61.0909 41.871 82.0364C47.5806 86.5745 53.2903 91.1127 59 96C64.7097 91.1127 70.4194 86.5745 76.129 82.0364Z" fill="url(#paint0_radial_9_139)"/>
<path d="M706.985 96L685.865 26.752L700.969 26.88L714.473 71.232L728.169 26.88H741.161L754.793 71.232L768.361 26.88H783.465L762.345 96H750.313L734.633 48.448L719.017 96H706.985Z" fill="#1E1E1E"/>
<path d="M654.309 97.92C647.312 97.92 641.168 96.4053 635.877 93.376C630.586 90.3467 626.448 86.144 623.461 80.768C620.517 75.392 619.045 69.2053 619.045 62.208C619.045 54.656 620.496 48.1067 623.397 42.56C626.298 36.9707 630.33 32.64 635.493 29.568C640.656 26.496 646.629 24.96 653.413 24.96C660.581 24.96 666.661 26.6453 671.653 30.016C676.688 33.344 680.421 38.0587 682.853 44.16C685.285 50.2613 686.202 57.4507 685.605 65.728H670.309V60.096C670.266 52.5867 668.944 47.104 666.341 43.648C663.738 40.192 659.642 38.464 654.053 38.464C647.738 38.464 643.045 40.4267 639.973 44.352C636.901 48.2347 635.365 53.9307 635.365 61.44C635.365 68.4373 636.901 73.856 639.973 77.696C643.045 81.536 647.525 83.456 653.413 83.456C657.21 83.456 660.474 82.624 663.205 80.96C665.978 79.2533 668.112 76.8 669.605 73.6L684.837 78.208C682.192 84.4373 678.096 89.28 672.549 92.736C667.045 96.192 660.965 97.92 654.309 97.92ZM630.501 65.728V54.08H678.053V65.728H630.501Z" fill="#1E1E1E"/>
<path d="M593.41 16.384V2.24H608.834V16.384H593.41ZM593.41 96V26.88H608.834V96H593.41Z" fill="#1E1E1E"/>
<path d="M538.486 96L509.43 3.84H525.302L549.622 81.024L574.262 3.84H590.134L561.078 96H538.486Z" fill="#1E1E1E"/>
<path d="M460.006 96V25.792C460.006 24.0427 460.07 22.1227 460.198 20.032C460.326 17.8987 460.689 15.7867 461.286 13.696C461.883 11.6053 462.971 9.70666 464.55 7.99999C466.513 5.82399 468.625 4.33066 470.886 3.52C473.19 2.66666 475.451 2.19733 477.67 2.11199C479.889 1.984 481.83 1.92 483.494 1.92H492.134V14.464H484.134C481.19 14.464 478.993 15.2107 477.542 16.704C476.134 18.1547 475.43 20.0747 475.43 22.464V96H460.006ZM448.87 38.976V26.88H492.134V38.976H448.87Z" fill="#1E1E1E"/>
<path d="M410.513 97.92C403.601 97.92 397.564 96.3627 392.401 93.248C387.238 90.1333 383.228 85.8453 380.369 80.384C377.553 74.88 376.145 68.5653 376.145 61.44C376.145 54.1867 377.596 47.8293 380.497 42.368C383.398 36.9067 387.43 32.64 392.593 29.568C397.756 26.496 403.729 24.96 410.513 24.96C417.468 24.96 423.526 26.5173 428.689 29.632C433.852 32.7467 437.862 37.056 440.721 42.56C443.58 48.0213 445.009 54.3147 445.009 61.44C445.009 68.608 443.558 74.944 440.657 80.448C437.798 85.9093 433.788 90.1973 428.625 93.312C423.462 96.384 417.425 97.92 410.513 97.92ZM410.513 83.456C416.657 83.456 421.222 81.408 424.209 77.312C427.196 73.216 428.689 67.9253 428.689 61.44C428.689 54.7413 427.174 49.408 424.145 45.44C421.116 41.4293 416.572 39.424 410.513 39.424C406.374 39.424 402.961 40.3627 400.273 42.24C397.628 44.0747 395.665 46.656 394.385 49.984C393.105 53.2693 392.465 57.088 392.465 61.44C392.465 68.1387 393.98 73.4933 397.009 77.504C400.081 81.472 404.582 83.456 410.513 83.456Z" fill="#1E1E1E"/>
<path d="M319.024 97.92C312.027 97.92 305.883 96.4053 300.592 93.376C295.301 90.3467 291.163 86.144 288.176 80.768C285.232 75.392 283.76 69.2053 283.76 62.208C283.76 54.656 285.211 48.1067 288.112 42.56C291.013 36.9707 295.045 32.64 300.208 29.568C305.371 26.496 311.344 24.96 318.128 24.96C325.296 24.96 331.376 26.6453 336.368 30.016C341.403 33.344 345.136 38.0587 347.568 44.16C350 50.2613 350.917 57.4507 350.32 65.728H335.024V60.096C334.981 52.5867 333.659 47.104 331.056 43.648C328.453 40.192 324.357 38.464 318.768 38.464C312.453 38.464 307.76 40.4267 304.688 44.352C301.616 48.2347 300.08 53.9307 300.08 61.44C300.08 68.4373 301.616 73.856 304.688 77.696C307.76 81.536 312.24 83.456 318.128 83.456C321.925 83.456 325.189 82.624 327.92 80.96C330.693 79.2533 332.827 76.8 334.32 73.6L349.552 78.208C346.907 84.4373 342.811 89.28 337.264 92.736C331.76 96.192 325.68 97.92 319.024 97.92ZM295.216 65.728V54.08H342.768V65.728H295.216Z" fill="#1E1E1E"/>
<path d="M258.125 96V1.92H273.549V96H258.125Z" fill="#1E1E1E"/>
<path d="M219.403 97.92C210.87 97.92 203.936 96 198.603 92.16C193.27 88.32 190.027 82.9227 188.875 75.968L204.619 73.536C205.43 76.9493 207.222 79.6373 209.995 81.6C212.768 83.5627 216.267 84.544 220.491 84.544C224.203 84.544 227.062 83.8187 229.067 82.368C231.115 80.8747 232.139 78.848 232.139 76.288C232.139 74.7093 231.755 73.4507 230.987 72.512C230.262 71.5307 228.64 70.592 226.123 69.696C223.606 68.8 219.744 67.6693 214.539 66.304C208.736 64.768 204.128 63.1253 200.715 61.376C197.302 59.584 194.848 57.472 193.355 55.04C191.862 52.608 191.115 49.664 191.115 46.208C191.115 41.8987 192.246 38.144 194.507 34.944C196.768 31.744 199.926 29.2907 203.979 27.584C208.032 25.8347 212.811 24.96 218.315 24.96C223.691 24.96 228.448 25.792 232.587 27.456C236.768 29.12 240.139 31.488 242.699 34.56C245.259 37.632 246.838 41.2373 247.435 45.376L231.691 48.192C231.307 45.248 229.963 42.9227 227.659 41.216C225.398 39.5093 222.368 38.5493 218.571 38.336C214.944 38.1227 212.022 38.6773 209.803 40C207.584 41.28 206.475 43.0933 206.475 45.44C206.475 46.7627 206.923 47.8933 207.819 48.832C208.715 49.7707 210.507 50.7093 213.195 51.648C215.926 52.5867 219.979 53.7387 225.355 55.104C230.859 56.512 235.254 58.1333 238.539 59.968C241.867 61.76 244.256 63.9147 245.707 66.432C247.2 68.9493 247.947 72 247.947 75.584C247.947 82.5387 245.408 88 240.331 91.968C235.296 95.936 228.32 97.92 219.403 97.92Z" fill="#1E1E1E"/>
<path d="M163.24 96V3.84H178.664V96H163.24Z" fill="#1E1E1E"/>
</g>
<defs>
<radialGradient id="paint0_radial_9_139" cx="0" cy="0" r="1" gradientUnits="userSpaceOnUse" gradientTransform="translate(106.581 40.1455) rotate(180) scale(129.419 118.691)">
<stop stop-color="#6DC761"/>
<stop offset="0.28" stop-color="#4ADE80"/>
<stop offset="0.48" stop-color="#2BBBC0"/>
<stop offset="0.65" stop-color="#5B8DEF"/>
<stop offset="0.82" stop-color="#D247AA"/>
<stop offset="0.92" stop-color="#FD7436"/>
<stop offset="1" stop-color="#FAC124"/>
</radialGradient>
<clipPath id="clip0_9_139">
<rect width="783" height="98" rx="2" fill="white"/>
</clipPath>
</defs>
</svg>
