<svg width="810" height="146" viewBox="0 0 810 146" fill="none" xmlns="http://www.w3.org/2000/svg">
<path d="M103.129 105.473C129.774 85.1818 145 73.3455 145 54.7455C145 37.8364 131.677 26 112.645 26C101.226 26 90.9484 31.0727 86 38.5127C81.0516 31.0727 70.7742 26 59.3548 26C40.3226 26 27 37.8364 27 54.7455C27 73.3455 42.2258 85.1818 68.871 105.473C74.5806 109.869 80.2903 114.265 86 119C91.7097 114.265 97.4194 109.869 103.129 105.473Z" fill="url(#paint0_radial_1_5)"/>
<path d="M708.985 119L687.865 49.752L702.969 49.88L716.473 94.232L730.169 49.88H743.161L756.793 94.232L770.361 49.88H785.465L764.345 119H752.313L736.633 71.448L721.017 119H708.985Z" fill="white"/>
<path d="M656.309 120.92C649.312 120.92 643.168 119.405 637.877 116.376C632.586 113.347 628.448 109.144 625.461 103.768C622.517 98.392 621.045 92.2053 621.045 85.208C621.045 77.656 622.496 71.1067 625.397 65.56C628.298 59.9707 632.33 55.64 637.493 52.568C642.656 49.496 648.629 47.96 655.413 47.96C662.581 47.96 668.661 49.6453 673.653 53.016C678.688 56.344 682.421 61.0587 684.853 67.16C687.285 73.2613 688.202 80.4507 687.605 88.728H672.309V83.096C672.266 75.5867 670.944 70.104 668.341 66.648C665.738 63.192 661.642 61.464 656.053 61.464C649.738 61.464 645.045 63.4267 641.973 67.352C638.901 71.2347 637.365 76.9307 637.365 84.44C637.365 91.4373 638.901 96.856 641.973 100.696C645.045 104.536 649.525 106.456 655.413 106.456C659.21 106.456 662.474 105.624 665.205 103.96C667.978 102.253 670.112 99.8 671.605 96.6L686.837 101.208C684.192 107.437 680.096 112.28 674.549 115.736C669.045 119.192 662.965 120.92 656.309 120.92ZM632.501 88.728V77.08H680.053V88.728H632.501Z" fill="white"/>
<path d="M595.41 39.384V25.24H610.834V39.384H595.41ZM595.41 119V49.88H610.834V119H595.41Z" fill="white"/>
<path d="M540.486 119L511.43 26.84H527.302L551.622 104.024L576.262 26.84H592.134L563.078 119H540.486Z" fill="white"/>
<path d="M462.006 119V48.792C462.006 47.0427 462.07 45.1227 462.198 43.032C462.326 40.8986 462.689 38.7866 463.286 36.696C463.883 34.6053 464.971 32.7066 466.55 31C468.513 28.824 470.625 27.3306 472.886 26.52C475.19 25.6666 477.451 25.1973 479.67 25.112C481.889 24.984 483.83 24.92 485.494 24.92H494.134V37.464H486.134C483.19 37.464 480.993 38.2106 479.542 39.704C478.134 41.1546 477.43 43.0746 477.43 45.464V119H462.006ZM450.87 61.976V49.88H494.134V61.976H450.87Z" fill="white"/>
<path d="M412.513 120.92C405.601 120.92 399.564 119.363 394.401 116.248C389.238 113.133 385.228 108.845 382.369 103.384C379.553 97.88 378.145 91.5653 378.145 84.44C378.145 77.1867 379.596 70.8293 382.497 65.368C385.398 59.9067 389.43 55.64 394.593 52.568C399.756 49.496 405.729 47.96 412.513 47.96C419.468 47.96 425.526 49.5173 430.689 52.632C435.852 55.7467 439.862 60.056 442.721 65.56C445.58 71.0213 447.009 77.3147 447.009 84.44C447.009 91.608 445.558 97.944 442.657 103.448C439.798 108.909 435.788 113.197 430.625 116.312C425.462 119.384 419.425 120.92 412.513 120.92ZM412.513 106.456C418.657 106.456 423.222 104.408 426.209 100.312C429.196 96.216 430.689 90.9253 430.689 84.44C430.689 77.7413 429.174 72.408 426.145 68.44C423.116 64.4293 418.572 62.424 412.513 62.424C408.374 62.424 404.961 63.3627 402.273 65.24C399.628 67.0747 397.665 69.656 396.385 72.984C395.105 76.2693 394.465 80.088 394.465 84.44C394.465 91.1387 395.98 96.4933 399.009 100.504C402.081 104.472 406.582 106.456 412.513 106.456Z" fill="white"/>
<path d="M321.024 120.92C314.027 120.92 307.883 119.405 302.592 116.376C297.301 113.347 293.163 109.144 290.176 103.768C287.232 98.392 285.76 92.2053 285.76 85.208C285.76 77.656 287.211 71.1067 290.112 65.56C293.013 59.9707 297.045 55.64 302.208 52.568C307.371 49.496 313.344 47.96 320.128 47.96C327.296 47.96 333.376 49.6453 338.368 53.016C343.403 56.344 347.136 61.0587 349.568 67.16C352 73.2613 352.917 80.4507 352.32 88.728H337.024V83.096C336.981 75.5867 335.659 70.104 333.056 66.648C330.453 63.192 326.357 61.464 320.768 61.464C314.453 61.464 309.76 63.4267 306.688 67.352C303.616 71.2347 302.08 76.9307 302.08 84.44C302.08 91.4373 303.616 96.856 306.688 100.696C309.76 104.536 314.24 106.456 320.128 106.456C323.925 106.456 327.189 105.624 329.92 103.96C332.693 102.253 334.827 99.8 336.32 96.6L351.552 101.208C348.907 107.437 344.811 112.28 339.264 115.736C333.76 119.192 327.68 120.92 321.024 120.92ZM297.216 88.728V77.08H344.768V88.728H297.216Z" fill="white"/>
<path d="M260.125 119V24.92H275.549V119H260.125Z" fill="white"/>
<path d="M221.403 120.92C212.87 120.92 205.936 119 200.603 115.16C195.27 111.32 192.027 105.923 190.875 98.968L206.619 96.536C207.43 99.9493 209.222 102.637 211.995 104.6C214.768 106.563 218.267 107.544 222.491 107.544C226.203 107.544 229.062 106.819 231.067 105.368C233.115 103.875 234.139 101.848 234.139 99.288C234.139 97.7093 233.755 96.4507 232.987 95.512C232.262 94.5307 230.64 93.592 228.123 92.696C225.606 91.8 221.744 90.6693 216.539 89.304C210.736 87.768 206.128 86.1253 202.715 84.376C199.302 82.584 196.848 80.472 195.355 78.04C193.862 75.608 193.115 72.664 193.115 69.208C193.115 64.8987 194.246 61.144 196.507 57.944C198.768 54.744 201.926 52.2907 205.979 50.584C210.032 48.8347 214.811 47.96 220.315 47.96C225.691 47.96 230.448 48.792 234.587 50.456C238.768 52.12 242.139 54.488 244.699 57.56C247.259 60.632 248.838 64.2373 249.435 68.376L233.691 71.192C233.307 68.248 231.963 65.9227 229.659 64.216C227.398 62.5093 224.368 61.5493 220.571 61.336C216.944 61.1227 214.022 61.6773 211.803 63C209.584 64.28 208.475 66.0933 208.475 68.44C208.475 69.7627 208.923 70.8933 209.819 71.832C210.715 72.7707 212.507 73.7093 215.195 74.648C217.926 75.5867 221.979 76.7387 227.355 78.104C232.859 79.512 237.254 81.1333 240.539 82.968C243.867 84.76 246.256 86.9147 247.707 89.432C249.2 91.9493 249.947 95 249.947 98.584C249.947 105.539 247.408 111 242.331 114.968C237.296 118.936 230.32 120.92 221.403 120.92Z" fill="white"/>
<path d="M165.24 119V26.84H180.664V119H165.24Z" fill="white"/>
<defs>
<radialGradient id="paint0_radial_1_5" cx="0" cy="0" r="1" gradientUnits="userSpaceOnUse" gradientTransform="translate(133.581 64.8909) rotate(180) scale(129.419 114.982)">
<stop stop-color="#6DC761"/>
<stop offset="0.28" stop-color="#4ADE80"/>
<stop offset="0.48" stop-color="#2BBBC0"/>
<stop offset="0.65" stop-color="#5B8DEF"/>
<stop offset="0.82" stop-color="#D247AA"/>
<stop offset="0.92" stop-color="#FD7436"/>
<stop offset="1" stop-color="#FAC124"/>
</radialGradient>
</defs>
</svg>
